<?xml version="1.0" encoding="UTF-8" standalone="no"?>
<!-- Created with Inkscape (http://www.inkscape.org/) -->

<svg
   xmlns:dc="http://purl.org/dc/elements/1.1/"
   xmlns:cc="http://creativecommons.org/ns#"
   xmlns:rdf="http://www.w3.org/1999/02/22-rdf-syntax-ns#"
   xmlns:svg="http://www.w3.org/2000/svg"
   xmlns="http://www.w3.org/2000/svg"
   xmlns:sodipodi="http://sodipodi.sourceforge.net/DTD/sodipodi-0.dtd"
   xmlns:inkscape="http://www.inkscape.org/namespaces/inkscape"
   id="svg2985"
   version="1.1"
   inkscape:version="0.48.5 r10040"
   width="720.26556"
   height="138.99115"
   sodipodi:docname="retropie.svg">
  <metadata
     id="metadata2991">
    <rdf:RDF>
      <cc:Work
         rdf:about="">
        <dc:format>image/svg+xml</dc:format>
        <dc:type
           rdf:resource="http://purl.org/dc/dcmitype/StillImage" />
      </cc:Work>
    </rdf:RDF>
  </metadata>
  <defs
     id="defs2989" />
  <sodipodi:namedview
     pagecolor="#ffffff"
     bordercolor="#666666"
     borderopacity="1"
     objecttolerance="10"
     gridtolerance="10"
     guidetolerance="10"
     inkscape:pageopacity="0"
     inkscape:pageshadow="2"
     inkscape:window-width="1366"
     inkscape:window-height="706"
     id="namedview2987"
     showgrid="false"
     inkscape:zoom="0.53298174"
     inkscape:cx="526.78359"
     inkscape:cy="134.79245"
     inkscape:window-x="-8"
     inkscape:window-y="-8"
     inkscape:window-maximized="1"
     inkscape:current-layer="svg2985"
     fit-margin-top="0"
     fit-margin-left="0"
     fit-margin-right="0"
     fit-margin-bottom="0" />
  <path
     inkscape:connector-curvature="0"
     id="path2997"
     d="m 147.0325,137.6207 c -20.15863,-5.12421 -34.2944,-20.982 -37.04268,-41.555317 -3.19395,-23.909532 11.27527,-46.594457 34.24467,-53.688982 7.22068,-2.230244 20.08682,-2.673656 27.74973,-0.956357 12.209,2.736092 25.71681,13.459423 31.21346,24.779149 2.93264,6.039445 5.50156,16.388353 5.52942,22.275398 0.0335,7.078388 1.74046,6.668962 -27.80375,6.668962 -29.98361,0 -27.82071,0.618322 -27.82071,-7.953332 0,-8.054841 0.69814,-8.641476 10.28407,-8.641476 7.59038,0 8.26307,-0.157676 8.26307,-1.936926 0,-1.065318 -1.25188,-3.338015 -2.78193,-5.050463 -2.40964,-2.696842 -3.44494,-3.123485 -7.73594,-3.18793 -3.53666,-0.05311 -5.743,0.498654 -7.71182,1.928646 -10.09572,7.332661 -9.7548,29.476046 0.55902,36.309998 4.09328,2.71222 7.34289,2.7783 12.06864,0.24546 2.00344,-1.07377 4.1933,-1.92996 4.86637,-1.90261 1.45145,0.059 18.79471,20.98724 18.79471,22.67977 0,1.62711 -9.74643,7.29158 -15.61864,9.07731 -7.13282,2.16906 -20.35276,2.61305 -27.05769,0.90869 z m 237.42124,0.38483 c -12.10477,-2.34658 -27.43126,-13.767 -33.4015,-24.88891 -7.65238,-14.255516 -7.53793,-34.200789 0.27456,-47.85561 6.0865,-10.638119 17.66666,-19.564054 30.13158,-23.225348 12.49205,-3.669247 29.64656,-1.355599 40.30673,5.436214 6.01925,3.834992 14.82172,13.402728 17.87606,19.430166 9.6309,19.005684 6.10109,41.897908 -8.77899,56.935398 -12.16149,12.29015 -29.22435,17.4993 -46.40844,14.16809 z m 16.22247,-35.66109 c 12.52051,-5.941379 9.58429,-24.949522 -4.09212,-26.491054 -8.28334,-0.933652 -14.13616,4.146351 -14.83603,12.877043 -0.47768,5.959091 2.25107,10.798411 7.60597,13.488811 4.22819,2.1243 7.04378,2.15544 11.32218,0.12525 z m 257.86676,35.27626 c -20.15864,-5.12421 -34.29439,-20.982 -37.04268,-41.555317 -3.19395,-23.909532 11.27527,-46.594457 34.24468,-53.688982 7.22067,-2.230244 20.08678,-2.673656 27.74973,-0.956357 12.20898,2.736092 25.71679,13.459423 31.21343,24.779149 2.93264,6.039445 5.50158,16.388353 5.52944,22.275398 0.0335,7.078388 1.74046,6.668962 -27.80375,6.668962 -29.98361,0 -27.8207,0.618322 -27.8207,-7.953332 0,-8.054841 0.69813,-8.641476 10.28407,-8.641476 7.59038,0 8.26307,-0.157676 8.26307,-1.936926 0,-1.065318 -1.25189,-3.338015 -2.78194,-5.050463 -2.40966,-2.696842 -3.44494,-3.123485 -7.73595,-3.18793 -3.53665,-0.05311 -5.74298,0.498654 -7.71181,1.928646 -10.09572,7.332661 -9.75478,29.476046 0.55902,36.309998 4.09327,2.71222 7.3429,2.7783 12.06863,0.24546 2.00346,-1.07377 4.1933,-1.92996 4.86639,-1.90261 1.45144,0.059 18.7947,20.98724 18.7947,22.67977 0,1.62711 -9.74642,7.29158 -15.61867,9.07731 -7.1328,2.16907 -20.3527,2.61306 -27.05766,0.90869 z M 251.6953,135.8075 c -12.14006,-4.29761 -21.1828,-11.86785 -26.31087,-22.02654 -5.62059,-11.13428 -5.87228,-13.798478 -5.88814,-62.320794 l -0.0146,-44.1714676 17.54894,0 17.54895,0 0.26606,17.8150116 0.26607,17.815011 7.29274,0.291161 c 4.31475,0.172261 7.59724,0.770185 8.03842,1.464248 0.4101,0.645196 0.75241,8.69678 0.76062,17.892411 0.0114,12.487358 -0.3042,16.984187 -1.24597,17.765773 -0.69351,0.575547 -4.3175,1.178427 -8.05336,1.33973 l -6.79245,0.293276 0.31178,4.816297 c 0.54255,8.380397 3.15923,11.736168 10.63808,13.642793 l 4.66877,1.19024 0.2656,18.24009 0.26557,18.24007 -6.61063,-0.0207 c -4.36469,-0.0145 -8.76644,-0.78373 -12.95574,-2.26674 z M 0.33130857,134.94328 C 0.03578047,133.72371 -0.08477884,104.61235 0.06340006,70.251342 L 0.33281479,7.7767796 29.402832,7.5181685 c 31.670961,-0.2817492 36.701267,0.2761301 47.177501,5.2321825 11.047169,5.226147 19.992387,17.843495 21.734264,30.656451 1.797103,13.219266 -1.788548,24.810457 -10.686691,34.546453 -2.645028,2.894075 -4.809147,5.890562 -4.809147,6.658845 0,0.768281 4.608455,12.50557 10.241026,26.08286 5.632558,13.57729 9.999375,25.07696 9.704035,25.55482 -0.29534,0.47789 -9.232831,0.86887 -19.861091,0.86887 l -19.324112,0 -3.95984,-8.54144 c -2.177907,-4.6978 -6.414723,-14.09742 -9.415143,-20.88804 l -5.455311,-12.346588 0,-16.236877 c 0,-12.120456 0.30935,-16.340632 1.220206,-16.646123 0.671114,-0.225093 3.085335,-0.886669 5.364939,-1.470172 5.622152,-1.439083 8.057331,-4.24957 8.057331,-9.299113 0,-3.078044 -0.598676,-4.601339 -2.517262,-6.405049 -2.212665,-2.08017 -3.423376,-2.366527 -10.00569,-2.366527 l -7.488431,0 -0.488082,46.855925 -0.488084,46.855914 -18.767309,0.26505 -18.76730924,0.26501 -0.53732319,-2.21734 z M 289.46261,136.49011 c -0.37017,-0.37016 -0.66782,-14.10748 -0.66144,-30.5274 0.009,-21.748876 0.36487,-31.180898 1.31285,-34.740231 4.05085,-15.20989 13.10514,-25.180117 26.57871,-29.267417 5.08069,-1.541258 20.53647,-1.990578 22.63607,-0.658055 0.94924,0.602432 1.17988,5.038897 0.97615,18.776234 l -0.26672,17.987421 -4.70081,-0.337383 c -4.90974,-0.352375 -7.32942,0.934903 -9.78802,5.20729 -0.74041,1.286612 -1.29801,10.878865 -1.61789,27.831631 l -0.48808,25.86836 -16.65389,0.26629 c -9.15964,0.14639 -16.95677,-0.0366 -17.32693,-0.40674 z m 170.82749,-9.7e-4 c -0.3694,-0.36982 -0.67164,-21.04818 -0.67164,-45.952367 0,-51.386614 0.32757,-54.517157 6.7435,-64.443842 15.91434,-24.622589 52.86283,-29.652274 74.56539,-10.150354 10.14651,9.117674 14.91941,21.448413 14.09067,36.403282 -0.59482,10.734164 -1.5281,14.148935 -5.81862,21.289506 -6.97645,11.610699 -19.41656,17.856238 -35.87827,18.012648 l -8.31101,0.07895 -0.26686,-16.790327 -0.2669,-16.790321 3.19538,-0.605835 c 5.82631,-1.104659 8.88714,-5.171578 7.87542,-10.464062 -0.79606,-4.16425 -3.35757,-5.778165 -8.62711,-5.435617 -3.76901,0.245007 -5.02759,0.819784 -6.69253,3.056372 -1.99519,2.680227 -2.06372,3.958816 -2.53864,47.344 l -0.48808,44.589387 -18.11953,0.26489 c -9.96575,0.14566 -18.42179,-0.0373 -18.79117,-0.40672 z m 110.30805,9.7e-4 c -0.37018,-0.37016 -0.67306,-21.68496 -0.67306,-47.366247 l 0,-46.693224 17.58035,0 17.58037,0 -0.25343,47.099964 -0.25342,47.099957 -16.65389,0.26629 c -9.15964,0.14639 -16.95677,-0.0366 -17.32692,-0.40674 z M 579.1021,31.785139 c -5.60139,-2.543852 -8.50811,-6.994887 -8.94326,-13.694787 -0.43856,-6.752453 1.69053,-11.0649825 7.49349,-15.178126 C 581.08841,0.476709 582.69976,0 587.49608,0 c 4.79631,0 6.40767,0.476709 9.84374,2.912226 5.80294,4.1131435 7.93204,8.425673 7.4935,15.178126 -0.61424,9.456992 -7.38167,15.511928 -17.33724,15.511928 -2.41603,0 -6.19329,-0.817713 -8.39398,-1.817141 z"
     style="fill:#070707" />
</svg>
